<mxfile host="Electron" modified="2023-12-12T08:36:16.150Z" agent="Mozilla/5.0 (Windows NT 10.0; Win64; x64) AppleWebKit/537.36 (KHTML, like Gecko) draw.io/22.1.2 Chrome/114.0.5735.289 Electron/25.9.4 Safari/537.36" etag="r9UBLorvgP_wX29WRh_5" version="22.1.2" type="device">
  <diagram id="C5RBs43oDa-KdzZeNtuy" name="Page-1">
    <mxGraphModel dx="1313" dy="776" grid="1" gridSize="10" guides="1" tooltips="1" connect="1" arrows="1" fold="1" page="1" pageScale="1" pageWidth="827" pageHeight="1169" math="1" shadow="0">
      <root>
        <mxCell id="WIyWlLk6GJQsqaUBKTNV-0" />
        <mxCell id="WIyWlLk6GJQsqaUBKTNV-1" parent="WIyWlLk6GJQsqaUBKTNV-0" />
        <mxCell id="LFshwn0Ff7j0tCdY09gB-49" value="" style="edgeStyle=orthogonalEdgeStyle;rounded=0;orthogonalLoop=1;jettySize=auto;html=1;" parent="WIyWlLk6GJQsqaUBKTNV-1" source="LFshwn0Ff7j0tCdY09gB-0" target="LFshwn0Ff7j0tCdY09gB-48" edge="1">
          <mxGeometry relative="1" as="geometry" />
        </mxCell>
        <mxCell id="LFshwn0Ff7j0tCdY09gB-0" value="Début" style="ellipse;whiteSpace=wrap;html=1;" parent="WIyWlLk6GJQsqaUBKTNV-1" vertex="1">
          <mxGeometry x="379.38" y="120" width="80" height="40" as="geometry" />
        </mxCell>
        <mxCell id="LFshwn0Ff7j0tCdY09gB-4" value="" style="edgeStyle=orthogonalEdgeStyle;rounded=0;orthogonalLoop=1;jettySize=auto;html=1;" parent="WIyWlLk6GJQsqaUBKTNV-1" source="LFshwn0Ff7j0tCdY09gB-1" target="LFshwn0Ff7j0tCdY09gB-3" edge="1">
          <mxGeometry relative="1" as="geometry" />
        </mxCell>
        <mxCell id="LFshwn0Ff7j0tCdY09gB-1" value="Calcule les valeurs de membership générales&lt;br&gt;$$G_j = \{\mu_{ij} \in \mathbb{R}\} \mid \forall x_j \in X, \forall i \in \{1,2,...,C\}$$" style="whiteSpace=wrap;html=1;verticalAlign=middle;spacingTop=12;" parent="WIyWlLk6GJQsqaUBKTNV-1" vertex="1">
          <mxGeometry x="269.38" y="240" width="300" height="70" as="geometry" />
        </mxCell>
        <mxCell id="LFshwn0Ff7j0tCdY09gB-11" value="" style="edgeStyle=orthogonalEdgeStyle;rounded=0;orthogonalLoop=1;jettySize=auto;html=1;" parent="WIyWlLk6GJQsqaUBKTNV-1" source="LFshwn0Ff7j0tCdY09gB-3" target="LFshwn0Ff7j0tCdY09gB-10" edge="1">
          <mxGeometry relative="1" as="geometry" />
        </mxCell>
        <mxCell id="LFshwn0Ff7j0tCdY09gB-3" value="Calcule les valeurs de membership locales, et calcule une pondération associée&lt;br&gt;$$L_j= \{l_{iM_j} \in \mathbb{R}\}, W_j = \{w_{iM_j} \in \mathbb{R}\} \mid \forall x_j \in X, \forall i \in \{1,2,...,C\}$$" style="whiteSpace=wrap;html=1;spacingTop=12;" parent="WIyWlLk6GJQsqaUBKTNV-1" vertex="1">
          <mxGeometry x="217.56" y="350" width="404.88" height="80" as="geometry" />
        </mxCell>
        <mxCell id="LFshwn0Ff7j0tCdY09gB-24" value="" style="edgeStyle=orthogonalEdgeStyle;rounded=0;orthogonalLoop=1;jettySize=auto;html=1;" parent="WIyWlLk6GJQsqaUBKTNV-1" source="LFshwn0Ff7j0tCdY09gB-10" target="LFshwn0Ff7j0tCdY09gB-23" edge="1">
          <mxGeometry relative="1" as="geometry" />
        </mxCell>
        <mxCell id="LFshwn0Ff7j0tCdY09gB-10" value="Calcule les valeurs de membership combinées&lt;br&gt;$$U_j = \{u_{ij}\} \in \mathbb{R} \mid \forall x_j \in X, \forall i \in \{1,2,...,C\}$$" style="whiteSpace=wrap;html=1;spacingTop=12;" parent="WIyWlLk6GJQsqaUBKTNV-1" vertex="1">
          <mxGeometry x="269.38" y="470" width="300" height="70" as="geometry" />
        </mxCell>
        <mxCell id="LFshwn0Ff7j0tCdY09gB-16" value="" style="edgeStyle=orthogonalEdgeStyle;rounded=0;orthogonalLoop=1;jettySize=auto;html=1;" parent="WIyWlLk6GJQsqaUBKTNV-1" source="LFshwn0Ff7j0tCdY09gB-12" target="LFshwn0Ff7j0tCdY09gB-15" edge="1">
          <mxGeometry relative="1" as="geometry" />
        </mxCell>
        <mxCell id="LFshwn0Ff7j0tCdY09gB-12" value="Calcule les valeurs de la fonction objectif&lt;br&gt;$$J \in \mathbb{R}$$" style="whiteSpace=wrap;html=1;spacingTop=12;" parent="WIyWlLk6GJQsqaUBKTNV-1" vertex="1">
          <mxGeometry x="278.13" y="620" width="282.5" height="60" as="geometry" />
        </mxCell>
        <mxCell id="LFshwn0Ff7j0tCdY09gB-33" value="" style="edgeStyle=orthogonalEdgeStyle;rounded=0;orthogonalLoop=1;jettySize=auto;html=1;" parent="WIyWlLk6GJQsqaUBKTNV-1" source="LFshwn0Ff7j0tCdY09gB-15" target="LFshwn0Ff7j0tCdY09gB-32" edge="1">
          <mxGeometry relative="1" as="geometry" />
        </mxCell>
        <mxCell id="LFshwn0Ff7j0tCdY09gB-34" value="Faux" style="edgeLabel;html=1;align=center;verticalAlign=middle;resizable=0;points=[];" parent="LFshwn0Ff7j0tCdY09gB-33" vertex="1" connectable="0">
          <mxGeometry x="-0.3738" relative="1" as="geometry">
            <mxPoint x="-1" y="2" as="offset" />
          </mxGeometry>
        </mxCell>
        <mxCell id="LFshwn0Ff7j0tCdY09gB-53" style="edgeStyle=orthogonalEdgeStyle;rounded=0;orthogonalLoop=1;jettySize=auto;html=1;exitX=1;exitY=0.5;exitDx=0;exitDy=0;entryX=0.5;entryY=0;entryDx=0;entryDy=0;" parent="WIyWlLk6GJQsqaUBKTNV-1" source="LFshwn0Ff7j0tCdY09gB-15" target="TsPeEVxIqd-z6GiVTvfl-0" edge="1">
          <mxGeometry relative="1" as="geometry">
            <mxPoint x="600" y="760" as="targetPoint" />
          </mxGeometry>
        </mxCell>
        <mxCell id="LFshwn0Ff7j0tCdY09gB-55" value="Vrai" style="edgeLabel;html=1;align=center;verticalAlign=middle;resizable=0;points=[];" parent="LFshwn0Ff7j0tCdY09gB-53" vertex="1" connectable="0">
          <mxGeometry x="-0.2481" y="-3" relative="1" as="geometry">
            <mxPoint x="-50" y="-3" as="offset" />
          </mxGeometry>
        </mxCell>
        <mxCell id="LFshwn0Ff7j0tCdY09gB-15" value="Fonction objectif&lt;br&gt;optimale ?" style="rhombus;whiteSpace=wrap;html=1;spacingTop=0;" parent="WIyWlLk6GJQsqaUBKTNV-1" vertex="1">
          <mxGeometry x="338.75" y="720" width="162.5" height="80" as="geometry" />
        </mxCell>
        <mxCell id="LFshwn0Ff7j0tCdY09gB-56" style="edgeStyle=orthogonalEdgeStyle;rounded=0;orthogonalLoop=1;jettySize=auto;html=1;exitX=0.5;exitY=1;exitDx=0;exitDy=0;entryX=1;entryY=0.5;entryDx=0;entryDy=0;" parent="WIyWlLk6GJQsqaUBKTNV-1" source="LFshwn0Ff7j0tCdY09gB-22" target="LFshwn0Ff7j0tCdY09gB-27" edge="1">
          <mxGeometry relative="1" as="geometry">
            <mxPoint x="520" y="1000" as="targetPoint" />
            <Array as="points">
              <mxPoint x="642" y="960" />
            </Array>
          </mxGeometry>
        </mxCell>
        <mxCell id="LFshwn0Ff7j0tCdY09gB-22" value="" style="shape=sumEllipse;perimeter=ellipsePerimeter;whiteSpace=wrap;html=1;backgroundOutline=1;" parent="WIyWlLk6GJQsqaUBKTNV-1" vertex="1">
          <mxGeometry x="622.44" y="900" width="40" height="40" as="geometry" />
        </mxCell>
        <mxCell id="LFshwn0Ff7j0tCdY09gB-25" value="" style="edgeStyle=orthogonalEdgeStyle;rounded=0;orthogonalLoop=1;jettySize=auto;html=1;" parent="WIyWlLk6GJQsqaUBKTNV-1" source="LFshwn0Ff7j0tCdY09gB-23" target="LFshwn0Ff7j0tCdY09gB-12" edge="1">
          <mxGeometry relative="1" as="geometry" />
        </mxCell>
        <mxCell id="LFshwn0Ff7j0tCdY09gB-54" style="edgeStyle=orthogonalEdgeStyle;rounded=0;orthogonalLoop=1;jettySize=auto;html=1;exitX=1;exitY=0.5;exitDx=0;exitDy=0;entryX=0.5;entryY=0;entryDx=0;entryDy=0;" parent="WIyWlLk6GJQsqaUBKTNV-1" source="LFshwn0Ff7j0tCdY09gB-23" target="LFshwn0Ff7j0tCdY09gB-22" edge="1">
          <mxGeometry relative="1" as="geometry" />
        </mxCell>
        <mxCell id="LFshwn0Ff7j0tCdY09gB-23" value="" style="ellipse;whiteSpace=wrap;html=1;spacingTop=10;" parent="WIyWlLk6GJQsqaUBKTNV-1" vertex="1">
          <mxGeometry x="399.38" y="560" width="40" height="40" as="geometry" />
        </mxCell>
        <mxCell id="LFshwn0Ff7j0tCdY09gB-30" value="" style="edgeStyle=orthogonalEdgeStyle;rounded=0;orthogonalLoop=1;jettySize=auto;html=1;" parent="WIyWlLk6GJQsqaUBKTNV-1" source="LFshwn0Ff7j0tCdY09gB-27" target="LFshwn0Ff7j0tCdY09gB-29" edge="1">
          <mxGeometry relative="1" as="geometry" />
        </mxCell>
        <mxCell id="LFshwn0Ff7j0tCdY09gB-27" value="IRM segmentée" style="whiteSpace=wrap;html=1;" parent="WIyWlLk6GJQsqaUBKTNV-1" vertex="1">
          <mxGeometry x="358.75" y="940" width="121.25" height="40" as="geometry" />
        </mxCell>
        <mxCell id="LFshwn0Ff7j0tCdY09gB-29" value="Arrêt" style="ellipse;whiteSpace=wrap;html=1;" parent="WIyWlLk6GJQsqaUBKTNV-1" vertex="1">
          <mxGeometry x="380" y="1000" width="80" height="40" as="geometry" />
        </mxCell>
        <mxCell id="LFshwn0Ff7j0tCdY09gB-57" value="" style="edgeStyle=orthogonalEdgeStyle;rounded=0;orthogonalLoop=1;jettySize=auto;html=1;" parent="WIyWlLk6GJQsqaUBKTNV-1" source="LFshwn0Ff7j0tCdY09gB-32" target="LFshwn0Ff7j0tCdY09gB-39" edge="1">
          <mxGeometry relative="1" as="geometry" />
        </mxCell>
        <mxCell id="LFshwn0Ff7j0tCdY09gB-32" value="Calcule les nouveaux clusters&lt;br&gt;$$V_{new_i} \mid \forall i \in \{1,2,...,C\} $$" style="whiteSpace=wrap;html=1;spacingTop=10;" parent="WIyWlLk6GJQsqaUBKTNV-1" vertex="1">
          <mxGeometry x="321.25" y="840" width="197.5" height="60" as="geometry" />
        </mxCell>
        <mxCell id="LFshwn0Ff7j0tCdY09gB-52" style="edgeStyle=orthogonalEdgeStyle;rounded=0;orthogonalLoop=1;jettySize=auto;html=1;exitX=0.5;exitY=0;exitDx=0;exitDy=0;entryX=0;entryY=0.5;entryDx=0;entryDy=0;" parent="WIyWlLk6GJQsqaUBKTNV-1" source="LFshwn0Ff7j0tCdY09gB-39" target="LFshwn0Ff7j0tCdY09gB-48" edge="1">
          <mxGeometry relative="1" as="geometry" />
        </mxCell>
        <mxCell id="LFshwn0Ff7j0tCdY09gB-61" value="Faux" style="edgeLabel;html=1;align=center;verticalAlign=middle;resizable=0;points=[];" parent="LFshwn0Ff7j0tCdY09gB-52" vertex="1" connectable="0">
          <mxGeometry x="-0.9374" y="-3" relative="1" as="geometry">
            <mxPoint x="-4" y="4" as="offset" />
          </mxGeometry>
        </mxCell>
        <mxCell id="LFshwn0Ff7j0tCdY09gB-58" style="edgeStyle=orthogonalEdgeStyle;rounded=0;orthogonalLoop=1;jettySize=auto;html=1;exitX=0.5;exitY=1;exitDx=0;exitDy=0;entryX=0;entryY=0.5;entryDx=0;entryDy=0;" parent="WIyWlLk6GJQsqaUBKTNV-1" source="LFshwn0Ff7j0tCdY09gB-39" target="TsPeEVxIqd-z6GiVTvfl-0" edge="1">
          <mxGeometry relative="1" as="geometry">
            <Array as="points">
              <mxPoint x="198" y="920" />
            </Array>
          </mxGeometry>
        </mxCell>
        <mxCell id="LFshwn0Ff7j0tCdY09gB-60" value="Vrai" style="edgeLabel;html=1;align=center;verticalAlign=middle;resizable=0;points=[];" parent="LFshwn0Ff7j0tCdY09gB-58" vertex="1" connectable="0">
          <mxGeometry x="-0.762" y="1" relative="1" as="geometry">
            <mxPoint x="-4" y="1" as="offset" />
          </mxGeometry>
        </mxCell>
        <mxCell id="LFshwn0Ff7j0tCdY09gB-39" value="Différence &amp;lt; seuil ?" style="rhombus;whiteSpace=wrap;html=1;" parent="WIyWlLk6GJQsqaUBKTNV-1" vertex="1">
          <mxGeometry x="120" y="830" width="155.62" height="80" as="geometry" />
        </mxCell>
        <mxCell id="LFshwn0Ff7j0tCdY09gB-59" value="" style="edgeStyle=orthogonalEdgeStyle;rounded=0;orthogonalLoop=1;jettySize=auto;html=1;" parent="WIyWlLk6GJQsqaUBKTNV-1" source="LFshwn0Ff7j0tCdY09gB-48" target="LFshwn0Ff7j0tCdY09gB-1" edge="1">
          <mxGeometry relative="1" as="geometry" />
        </mxCell>
        <mxCell id="LFshwn0Ff7j0tCdY09gB-48" value="" style="shape=orEllipse;perimeter=ellipsePerimeter;whiteSpace=wrap;html=1;backgroundOutline=1;" parent="WIyWlLk6GJQsqaUBKTNV-1" vertex="1">
          <mxGeometry x="399.38" y="180" width="40.62" height="40" as="geometry" />
        </mxCell>
        <mxCell id="TsPeEVxIqd-z6GiVTvfl-1" value="" style="edgeStyle=orthogonalEdgeStyle;rounded=0;orthogonalLoop=1;jettySize=auto;html=1;" parent="WIyWlLk6GJQsqaUBKTNV-1" source="TsPeEVxIqd-z6GiVTvfl-0" target="LFshwn0Ff7j0tCdY09gB-22" edge="1">
          <mxGeometry relative="1" as="geometry" />
        </mxCell>
        <mxCell id="TsPeEVxIqd-z6GiVTvfl-0" value="" style="shape=orEllipse;perimeter=ellipsePerimeter;whiteSpace=wrap;html=1;backgroundOutline=1;" parent="WIyWlLk6GJQsqaUBKTNV-1" vertex="1">
          <mxGeometry x="560" y="900" width="41.25" height="40" as="geometry" />
        </mxCell>
      </root>
    </mxGraphModel>
  </diagram>
</mxfile>
